<svg xmlns="http://www.w3.org/2000/svg" width="16px" height="16px" viewBox="0 0 2048 2048">
	<rect fill-opacity="0.6" x="0" y="0" width="2048" height="2048" rx="0" ry="0" fill="#53c1ea"></rect>
	<g transform="scale(0.48)"><path fill-opacity="0.7" transform="translate(278.86, 2803.4) rotate(180) scale(-1, 1)" fill="#231f20" d="M1397 745Q1397 384 1192 192T598 0H184V1462H643Q1001 1462 1199 1273T1397 745ZM1075 737Q1075 1208 659 1208H494V256H627Q1075 256 1075 737Z"></path><path fill-opacity="0.7" transform="translate(1573.8600000000001, 2803.4) rotate(180) scale(-1, 1)" fill="#231f20" d="M748 0H438V1204H41V1462H1145V1204H748V0Z"></path><path fill-opacity="0.7" transform="translate(2868.86, 2803.4) rotate(180) scale(-1, 1)" fill="#231f20" d="M1026 0H184V1462H1026V1208H494V887H989V633H494V256H1026V0Z"></path></g>
</svg>